<?xml version="1.0" encoding="utf-8"?>
<!-- Generator: Adobe Illustrator 16.0.0, SVG Export Plug-In . SVG Version: 6.00 Build 0)  -->
<!DOCTYPE svg PUBLIC "-//W3C//DTD SVG 1.1//EN" "http://www.w3.org/Graphics/SVG/1.1/DTD/svg11.dtd">
<svg version="1.1" id="Layer_1" xmlns="http://www.w3.org/2000/svg" xmlns:xlink="http://www.w3.org/1999/xlink" x="0px" y="0px"
	 width="1572px" height="646.5px" viewBox="-1231.5 145.5 1572 646.5" enable-background="new -1231.5 145.5 1572 646.5"
	 xml:space="preserve">
<path fill="#03B0D8" d="M12.725,235.733c31.003-7.439,62.121-14.764,93.124-22.203c3.065-0.676,6.132-1.239,9.311-1.119
	c13.62,0.364,25.637,9.58,28.907,22.867c11.722,48.265,23.331,96.53,34.714,144.908c3.944,16.466-6.414,32.454-23.221,36.513
	c-24.871,5.973-49.628,11.947-74.5,17.92c-1.476,0.338-2.953,0.79-4.542,1.24c-17.944,4.283-35.887,8.68-53.831,12.964
	c-26.119,6.198-52.126,12.397-78.244,18.482c-2.499,0.563-4.998,1.013-7.494,1.235c-14.647,0.996-27.912-8.334-31.406-22.643
	c-11.723-48.382-23.332-96.76-34.827-145.137c-3.832-16.353,6.411-32.229,22.993-36.286c29.754-7.214,59.507-14.314,89.375-21.416
	c1.704-0.451,3.293-0.901,4.884-1.467C-3.855,239.564,4.436,237.649,12.725,235.733z M5.758,260.241
	c-29.641,7.101-59.279,14.315-88.921,21.302c-14.875,3.492-23.415,17.554-19.806,31.865c9.246,36.227,17.582,72.793,26.374,109.135
	c0.902,3.86,2.032,7.723,4.636,10.792c7.252,8.527,16.555,11.04,27.229,8.562c26.234-6.199,52.468-12.512,78.587-18.822
	c32.82-7.891,65.641-15.78,98.46-23.555c14.765-3.495,23.642-17.556,19.921-32.092c-9.36-36.57-17.81-73.363-26.601-110.045
	c-0.903-3.634-2.146-7.042-4.524-9.885c-7.363-8.526-16.668-10.924-27.23-8.446C64.585,246.04,35.172,253.14,5.758,260.241z
	 M120.7,224.568c-3.18,0.789-4.889,3.737-3.871,6.803c1.015,3.18,3.284,4.547,6.577,3.872c3.066-0.561,4.888-3.625,4.212-6.803
	C126.829,225.373,123.993,223.665,120.7,224.568z M-72.228,457.854c2.954-0.674,5.001-3.965,4.213-6.916
	c-0.677-2.84-4.078-5.115-6.917-4.214c-3.067,1.018-4.66,3.171-3.985,6.579C-78.128,456.594-75.293,458.53-72.228,457.854z
	 M-118.59,287.612c0.789,3.18,3.738,5.001,6.804,4.098c3.181-1.016,4.546-3.397,4.099-6.577c-0.45-3.179-3.511-4.887-6.691-4.21
	C-117.672,281.71-119.379,284.318-118.59,287.612z M167.403,394.696c-0.676-2.951-3.85-5.115-6.691-4.438
	c-2.837,0.677-5.001,4.079-4.098,6.917c0.903,3.181,3.056,4.66,6.464,3.984C166.258,400.598,168.079,397.877,167.403,394.696z"/>
<path fill="#03B0D8" d="M-7.13,505.754c-0.045-0.188-0.089-0.377-0.134-0.564c-2.027-9.085,2.412-15.775,11.611-18.029
	c2.96-0.713,5.912-1.424,8.871-2.137c5.64-7.581,12.717-14.431,21.364-11.594c1.017,0.334,1.88,0.801,2.612,1.359h18.59
	c17.9-4.307,35.796-8.615,53.723-12.876c9.312-2.255,16.231,1.616,18.598,11.155c0.141,0.572,0.276,1.148,0.417,1.721h23.093
	c-0.531-2.264-1.063-4.535-1.593-6.79c-1.128-4.203-2.256-8.519-3.27-12.72c-3.271-12.947-13.249-19.094-26.195-16.053
	c-13.629,3.27-27.256,6.426-40.885,9.694c-17.944,4.283-36,8.565-53.942,12.849c-14.195,3.495-28.505,6.988-42.813,10.482
	c-11.243,2.82-17.619,13.139-15.027,24.607c1.014,4.656,2.141,9.426,3.154,14.082c0.39,1.586,0.767,3.186,1.152,4.775
	c1.196,0.912,2.369,1.854,3.526,2.813c3.135-3.728,7.046-6.804,11.354-9.535C-11.204,507.902-9.198,506.85-7.13,505.754z
	 M128.827,449.459c3.068-1.016,6.016,0.578,6.918,3.646c0.903,2.952-0.806,6.128-3.871,6.918c-2.954,0.788-6.128-1.032-6.804-3.985
	C124.394,452.742,125.646,450.477,128.827,449.459z M-21.996,490.861c-0.335-3.066,0.805-5.448,4.097-6.349
	c3.181-0.791,6.13,0.916,6.918,3.985c0.676,2.726-1.486,6.126-4.325,6.803C-18.146,495.861-21.547,493.813-21.996,490.861z"/>
<path fill="#ACDEE3" d="M154.144,474.789c-0.58-2.416-1.158-4.838-1.737-7.24c-0.794,0.113-1.703,0.338-2.498,0.45
	c0.554,2.255,1.088,4.526,1.633,6.79H154.144z"/>
<path fill="#ACDEE3" d="M223.818,474.789c2.719-8.133,5.489-16.308,7.4-24.7c-10.104,0.097-19.407-2.759-27.457-9.126
	c-3.559,11.344-7.199,22.512-10.686,33.826H223.818z"/>
<path fill="#ACDEE3" d="M172.409,474.789c-0.844-0.285-1.688-0.564-2.532-0.853c-1.247-0.458-2.496-0.8-2.721-2.274
	c-0.429,1.049-0.845,2.082-1.269,3.127H172.409z"/>
<path fill="#03B0D8" d="M231.332,450.202c-10.216,0.096-19.408-2.757-27.456-9.126c-9.634-9.213-14.382-20.346-12.998-33.738
	c0.576-4.994,0.576-4.994,5.683-3.736c1.248,0.343,2.497,0.572,3.744,0.801c3.518,1.029,7.035,2.17,10.553,3.084
	c15.43,4.112,30.863,8.227,46.294,12.227c0.34,0.228,0.793,0.455,1.133,0.568c7.83,2.285,7.943,2.397,3.843,9.77
	c-5.579,10.094-14.104,16.437-25.346,19.026C234.965,449.415,233.148,449.752,231.332,450.202z M229.56,424.318
	c-0.79-2.84-4.078-4.888-6.918-4.1c-2.951,0.79-4.66,3.965-3.871,7.033c0.789,3.066,3.964,5.001,6.804,4.098
	C228.527,430.447,230.349,427.158,229.56,424.318z"/>
<path fill="#6ECC42" d="M-145.776,451.598c4.534,4.549,9.52,8.531,13.371,13.646c2.264,2.839,4.035,5.845,4.369,9.39
	c2.417-0.066,4.835-0.148,7.252-0.248c2.457-0.469,4.965-0.577,7.523-0.338c1.071-0.052,2.143-0.103,3.214-0.154
	c0.27-0.129,0.534-0.299,0.787-0.55c2.958-4.764,4.897-9.869,4.453-15.658c-1.219-17.712-22.309-31.142-39.687-25.269
	c-8.633,2.936-10.345,8.836-4.454,15.77C-147.929,449.437-146.91,450.461-145.776,451.598z"/>
<path fill="#6ECC42" d="M205.311,398.621c-10.545-6.602-15.75-15.807-13.005-28.288c2.86-12.936,11.84-20.526,23.995-24.478
	c2.271-0.791,4.77-0.787,7.151-0.102c4.424,1.255,6.237,3.87,5.889,8.41c-0.347,3.406-1.487,6.582-2.515,9.871
	c-1.598,4.879-3.196,9.644-4.68,14.522c-1.371,4.767-1.266,9.534,0.883,14.079C216.447,392.625,210.765,395.339,205.311,398.621z"/>
<path fill="#6ECC42" d="M-152.412,473.041c-0.107-0.142-0.213-0.281-0.32-0.423c-2.265-3.067-4.416-6.249-7.478-8.638
	c-3.06-2.504-6.125-2.623-9.194-0.017c-2.5,2.171-4.292,4.644-5.503,7.415C-167.395,471.704-159.904,472.381-152.412,473.041z"/>
<path fill="#6ECC42" d="M243.341,397.664c3.977-2.716,5.802-6.912,6.83-11.338c1.373-6.015,2.406-12.142,3.551-18.27
	c2.176-11.463,7.629-14.177,18.626-5.871c8.276,6.371,11.318,20.566,7.552,31.571c-3.992,11.459-11.722,17.121-24.55,17.779
	C252.522,405.854,247.99,401.647,243.341,397.664z"/>
<path fill="#6ECC42" d="M-12.662,211.511c-8.51-1.264-14.748-5.587-17.683-13.88c-2.599-7.383-1.225-14.306,3.894-20.201
	c7.621-8.954,21.471-9.384,29.857-1.083c8.499,8.416,7.908,22.377-1.188,30.194c-0.909,0.793-1.932,1.586-2.956,2.379
	C-4.712,210.389-8.574,211.63-12.662,211.511z"/>
<path fill="#6B52F7" d="M-113.357,474.051c-2.304-0.156-4.554-0.063-6.751,0.307C-117.858,474.263-115.608,474.159-113.357,474.051z
	"/>
<path fill="#6B52F7" d="M243.341,397.664c4.648,3.983,9.181,8.189,11.895,13.872c0.678,2.726,1.24,5.45,1.917,8.177
	c-15.431-4.114-30.864-8.114-46.294-12.227c-3.518-0.914-7.035-2.055-10.553-3.084c1.706-1.926,3.412-3.853,5.004-5.666
	c5.455-3.284,11.136-5.998,17.718-5.986C230.295,392.308,236.761,395.043,243.341,397.664z"/>
<path fill="#ACDEE3" d="M79.673,448.921c-17.944,4.283-36,8.565-53.942,12.849c-1.015-4.316-2.028-8.743-3.043-13.059
	c17.945-4.285,35.888-8.682,53.831-12.965C77.533,440.176,78.547,444.491,79.673,448.921z"/>
<path fill="#ACDEE3" d="M-12.662,211.511c4.201,0.006,8.062-1.122,11.811-2.591c4.527,8.863,9.051,17.838,13.577,26.701
	c-8.29,1.916-16.581,3.944-24.871,5.86c-1.235-6.926-0.088-13.849-0.417-20.662C-12.671,217.754-12.667,214.688-12.662,211.511z"/>
<path fill="#03B0D8" d="M-31.009,513.348c-0.073-0.313-0.146-0.625-0.219-0.936c-1.24-4.768-2.594-9.539-3.607-14.308
	c-0.563-2.611-1.472-2.841-3.743-1.711c-3.35,1.699-6.155,3.874-8.493,6.509C-41.656,506.229-36.204,509.622-31.009,513.348z"/>
<path fill="#03B0D8" d="M152.521,467.549c0.579,2.402,1.157,4.824,1.736,7.24h11.733c0.428-1.041,0.848-2.086,1.28-3.127
	c1.482-3.402,2.736-6.805,4.331-10.209c0.799-1.703,0.347-2.838-1.013-3.975c-5.554-4.665-11.907-6.945-19.172-6.844
	c-2.045,0.109-2.727,0.789-2.163,2.834C150.38,458.124,151.394,462.895,152.521,467.549z"/>
<path fill="#ACDEE3" d="M5.758,260.241c29.414-6.988,58.713-14.088,88.126-21.076c10.676-2.479,19.98-0.08,27.23,8.447
	c2.492,2.842,3.735,6.25,4.523,9.884c8.792,36.68,17.129,73.475,26.601,110.043c3.721,14.538-5.156,28.598-19.92,32.092
	c-32.82,7.776-65.64,15.665-98.46,23.556C7.624,429.5-18.497,435.811-44.729,442.01c-10.674,2.48-19.979-0.035-27.228-8.56
	c-2.719-3.185-3.735-6.933-4.637-10.794c-8.677-36.455-17.128-72.908-26.374-109.135c-3.609-14.31,4.929-28.258,19.806-31.865
	C-53.521,274.443-23.883,267.342,5.758,260.241z M10.739,399.536c-4.543,2.829-6.481,6.912-5.695,12.249
	c0.787,5.11,4.64,8.182,11.108,9.441c1.36,0.455,2.838,0.572,4.2,0.008c2.951,0.232,5.79-0.444,8.404-1.802
	c1.362-0.339,2.726-0.677,4.088-1.016c2.951,0.234,5.678-0.671,8.291-1.913c1.135-0.227,2.271-0.564,3.406-0.791
	c2.951,0.005,5.676-0.671,8.29-1.915c1.136-0.227,2.271-0.564,3.407-0.789c3.179-0.108,6.244-0.671,9.084-2.368
	c1.478-0.225,2.839-0.676,3.864-1.923c5.113-3.283,7.62-8.614,6.267-13.499c-1.241-4.769-5.891-8.183-11.678-8.76
	c-1.474-0.457-2.837-0.459-4.2,0.106c-3.066,0.675-6.019,1.464-9.085,2.141c-1.136,0.225-2.271,0.564-3.52,0.79
	c-2.726,0.675-5.454,1.352-8.064,1.916c-1.135,0.226-2.271,0.563-3.521,0.787c-2.725,0.677-5.451,1.354-8.29,2.03
	c-1.362,0.337-2.725,0.676-4.088,0.9c-2.84,0.677-5.565,1.467-8.404,2.143C13.015,397.496,11.765,398.176,10.739,399.536z
	 M131.558,313.13c-6.876-28.277-35.452-45.694-63.729-38.82c-28.051,6.763-45.24,35.341-38.478,63.503
	c6.874,28.393,35.112,45.581,63.617,38.706C121.017,369.757,138.435,341.181,131.558,313.13z M21.173,339.617
	c-6.763-28.164-35.112-45.695-63.162-38.932c-28.277,6.761-45.694,35.111-38.818,63.615c6.876,28.506,34.998,45.695,63.502,38.819
	C10.746,396.244,27.937,367.894,21.173,339.617z"/>
<path fill="#ACDEE3" d="M120.7,224.568c3.293-0.903,6.015,0.804,6.805,3.985c0.789,3.179-1.034,6.242-4.214,6.803
	c-3.292,0.563-5.561-0.805-6.576-3.873C115.811,228.305,117.52,225.357,120.7,224.568z"/>
<path fill="#ACDEE3" d="M-72.228,457.854c-3.065,0.677-5.9-1.26-6.576-4.551c-0.674-3.405,0.804-5.562,3.986-6.578
	c2.839-0.902,6.24,1.26,6.917,4.213C-67.227,453.889-69.274,457.18-72.228,457.854z"/>
<path fill="#ACDEE3" d="M-118.59,287.612c-0.789-3.294,0.805-5.902,4.098-6.691c3.181-0.676,6.243,1.032,6.691,4.212
	s-0.918,5.561-4.099,6.577C-114.852,292.613-117.801,290.792-118.59,287.612z"/>
<path fill="#ACDEE3" d="M167.403,394.696c0.676,3.181-1.145,5.901-4.438,6.464c-3.292,0.562-5.561-0.805-6.464-3.984
	c-0.79-2.839,1.26-6.127,4.098-6.918C163.553,389.582,166.727,391.745,167.403,394.696z"/>
<path fill="#ACDEE3" d="M-7.129,505.754c2.044-1.086,4.146-2.213,6.088-3.461c0.631-4.838,3.954-8.309,9.18-9.912
	c1.54-2.318,3.23-4.873,5.073-7.35c-2.957,0.711-5.907,1.416-8.865,2.129c-9.2,2.254-13.752,8.942-11.611,18.029
	C-7.219,505.377-7.175,505.566-7.129,505.754z"/>
<path fill="#ACDEE3" d="M81.197,474.789c8.601-2.059,17.191-4.129,25.801-6.184c6.57-1.51,11.686,0.738,14.3,6.184h7.232
	c-0.143-0.572-0.28-1.148-0.424-1.721c-2.367-9.539-9.172-13.41-18.598-11.155c-17.896,4.311-35.761,8.591-53.631,12.876H81.197z"/>
<path fill="#ACDEE3" d="M131.874,460.022c-2.954,0.788-6.128-1.032-6.803-4.099c-0.676-3.182,0.575-5.447,3.756-6.578
	c3.069-1.016,6.016,0.691,6.918,3.646C136.648,456.057,134.826,459.232,131.874,460.022z"/>
<path fill="#ACDEE3" d="M-15.306,495.301c-2.954,0.676-6.354-1.374-6.69-4.326c-0.449-3.066,0.805-5.562,4.099-6.348
	c3.065-0.792,6.128,0.915,6.917,3.982C-10.305,491.224-12.467,494.624-15.306,495.301z"/>
<path fill="#ACDEE3" d="M229.56,424.318c0.789,2.84-1.033,6.129-3.985,7.031c-2.84,0.903-6.015-1.031-6.804-4.098
	c-0.789-3.068,0.919-6.129,3.871-7.033C225.482,419.431,228.77,421.365,229.56,424.318z"/>
<path fill="#03B0D8" d="M131.558,313.13c6.876,28.164-10.542,56.74-38.591,63.503c-28.505,6.876-56.743-10.313-63.617-38.706
	c-6.762-28.276,10.427-56.74,38.478-63.503C96.106,267.436,124.682,284.738,131.558,313.13z M40.821,334.996
	c5.297,22.146,27.07,35.578,49.101,30.28c21.917-5.185,35.464-27.41,30.279-49.329c-5.182-21.917-27.41-35.465-49.327-30.281
	S35.523,312.852,40.821,334.996z"/>
<path fill="#03B0D8" d="M21.173,339.617c6.763,28.277-10.313,56.628-38.478,63.389c-28.505,6.876-56.741-10.314-63.502-38.818
	c-6.876-28.392,10.542-56.854,38.818-63.616C-13.938,293.921,14.297,311.452,21.173,339.617z M-20.917,391.762
	c22.03-4.958,35.805-26.729,30.96-48.873c-4.844-21.917-26.956-35.919-48.986-30.849c-22.031,4.957-35.69,26.729-30.848,48.873
	C-64.946,382.831-42.949,396.719-20.917,391.762z"/>
<path fill="#FBB964" d="M50.376,388.592c3.067-0.676,6.021-1.465,9.086-2.142c1.916,8.063,3.832,16.014,5.748,24.077
	c-2.84,1.585-5.908,2.146-9.085,2.367C54.209,404.718,52.292,396.656,50.376,388.592z"/>
<path fill="#FBB964" d="M52.718,413.685c-2.614,1.242-5.34,1.921-8.291,1.915c-1.916-8.063-3.832-16.24-5.748-24.303
	c2.725-0.676,5.451-1.353,8.063-1.916C48.773,397.444,50.802,405.62,52.718,413.685z"/>
<path fill="#FBB964" d="M26.981,394.229c2.726-0.677,5.454-1.353,8.292-2.029c1.916,8.063,3.946,16.238,5.862,24.305
	c-2.613,1.242-5.34,2.031-8.291,1.913C30.929,410.241,29.012,402.291,26.981,394.229z"/>
<path fill="#FBB964" d="M28.757,419.32c-2.615,1.355-5.454,2.033-8.405,1.8c-1.915-7.948-3.833-15.898-5.748-23.962
	c2.839-0.676,5.566-1.465,8.404-2.142C24.924,403.192,26.839,411.256,28.757,419.32z"/>
<path fill="#FBB964" d="M63.662,386.345c5.789,0.464,10.324,3.877,11.677,8.762c1.354,4.884-1.152,10.214-6.266,13.497
	C67.27,401.222,65.465,393.841,63.662,386.345z"/>
<path fill="#FBB964" d="M16.152,421.227c-6.468-1.146-10.209-4.331-11.108-9.441c-0.899-5.224,1.152-9.305,5.695-12.249
	C12.544,406.805,14.348,413.959,16.152,421.227z"/>
<path fill="#EF4338" d="M28.757,419.32c-1.918-8.064-3.833-16.128-5.749-24.191c1.363-0.338,2.726-0.676,4.088-0.9
	c1.916,8.063,3.833,16.013,5.862,24.075C31.482,418.643,30.118,418.98,28.757,419.32z"/>
<path fill="#EF4338" d="M63.662,386.345c1.803,7.382,3.607,14.877,5.412,22.259c-1.025,1.247-2.388,1.585-3.864,1.924
	c-1.916-8.063-3.832-16.014-5.748-24.077C60.825,386,62.301,385.889,63.662,386.345z"/>
<path fill="#EF4338" d="M16.152,421.227c-1.804-7.268-3.608-14.422-5.413-21.69c0.912-1.36,2.276-2.04,3.865-2.265
	c1.915,7.95,3.833,15.9,5.748,23.963C18.99,421.686,17.513,421.682,16.152,421.227z"/>
<path fill="#EF4338" d="M52.718,413.685c-1.917-8.064-3.945-16.24-5.862-24.303c1.136-0.225,2.272-0.563,3.52-0.789
	c1.917,8.064,3.833,16.24,5.749,24.302C54.989,413.119,53.854,413.346,52.718,413.685z"/>
<path fill="#EF4338" d="M41.135,416.504c-1.916-8.066-3.946-16.242-5.862-24.305c1.137-0.226,2.271-0.564,3.52-0.788
	c1.918,8.063,3.833,16.239,5.749,24.302C43.406,415.939,42.27,416.163,41.135,416.504z"/>
<path fill="#FBB964" d="M121.468,474.789c-2.598-5.556-7.739-7.916-14.357-6.297c-8.753,2.09-17.487,4.197-26.229,6.297H121.468z"/>
<path fill="#FBB964" d="M4.952,497.037c1-1.362,2.084-2.994,3.253-4.756c-5.215,1.615-8.523,5.096-9.138,9.942
	C1.396,500.717,3.486,499.036,4.952,497.037z"/>
<path fill="#FEFEFE" d="M40.821,334.996c-5.298-22.145,8.135-44.03,30.053-49.329c21.917-5.184,44.145,8.363,49.327,30.281
	c5.298,21.918-8.362,44.031-30.279,49.329C67.777,370.46,46.118,357.142,40.821,334.996z M100.669,320.795
	c-2.705-11.696-14.272-18.869-25.969-16.049c-11.469,2.817-18.527,14.158-15.822,25.742c2.705,11.582,13.929,18.752,25.513,16.047
	C96.202,343.833,103.373,332.493,100.669,320.795z"/>
<path fill="#FEFEFE" d="M-20.917,391.762c-22.032,4.957-44.143-8.931-48.874-30.848c-4.843-22.144,8.93-43.916,30.848-48.873
	c21.917-4.956,44.143,9.045,48.986,30.849C14.888,365.034,1.113,386.805-20.917,391.762z M-24.858,372.798
	c11.583-2.704,18.528-14.157,15.937-25.627c-2.703-11.697-14.27-18.87-25.967-16.051c-11.47,2.705-18.528,14.272-15.937,25.74
	C-48.234,368.331-36.555,375.502-24.858,372.798z"/>
<path fill="#252122" d="M100.669,320.795c2.703,11.698-4.468,23.038-16.278,25.74c-11.583,2.591-22.808-4.465-25.513-16.047
	c-2.705-11.472,4.353-22.925,15.822-25.742C86.397,301.926,97.851,308.984,100.669,320.795z"/>
<path fill="#252122" d="M-24.858,372.798c-11.695,2.818-23.375-4.467-25.967-16.051c-2.591-11.47,4.579-22.923,15.938-25.74
	c11.582-2.818,23.263,4.467,25.968,16.049C-6.33,358.641-13.388,369.979-24.858,372.798z"/>
<path fill="#151363" d="M-985.298,645.557l-8.857,31.821l-57.41,56.753h-125.317V475.624l8.856-31.823h127.287l55.441,85.622
	V645.557z M-999.404,639.665V533.602l-49.01-75.694h-105.176v230.297h105.084L-999.404,639.665z M-1064.359,632.105h-24.277v-118.1
	h24.277V632.105z"/>
<path fill="#151363" d="M-834.184,706.937l-7.57,27.194h-155.883V513.205l7.569-27.197h155.883v72.054l-7.57,27.196h-39.25v38.409
	l-7.57,11.215h54.39V706.937z M-846.24,694.881v-47.943H-922.5v-35.324h29.438v-34.205H-922.5v-31.401h76.259v-47.942h-131.489
	v196.816H-846.24z"/>
<path fill="#151363" d="M-682.511,658.434l-7.569,27.194l-49.064,48.503h-107.099V570.399l55.228-84.392h108.503V658.434z
	 M-694.564,498.064h-89.928l-41.843,63.931v132.886h89.808l41.962-41.482v-33.938h-55.793v32.805h-20.747V546.007h20.747v59.997
	h55.793V498.064z"/>
<path fill="#151363" d="M-607.652,706.937l-7.57,27.194h-79.625V513.205l7.57-27.197h79.625V706.937z M-619.708,694.881V498.064
	h-55.23v196.816H-619.708z"/>
<path fill="#151363" d="M-455.98,658.434l-7.569,27.194l-49.065,48.503h-107.098V513.205l7.569-27.197h108.782l47.381,73.175
	V658.434z M-468.034,653.398v-90.645l-41.886-64.689h-89.886v196.816h89.809L-468.034,653.398z M-523.547,646.938h-20.747V546.007
	h20.747V646.938z"/>
<path fill="#151363" d="M-304.864,706.937l-7.569,27.194h-155.884V513.205l7.569-27.197h155.883v72.054l-7.569,27.196h-39.252
	v38.409l-7.569,11.215h54.39V706.937z M-316.92,694.881v-47.943h-76.259v-35.324h29.438v-34.205h-29.438v-31.401h76.259v-47.942
	h-131.489v196.816H-316.92z"/>
<path fill="#151363" d="M-26.436,512.736v46.496l-4.199,14.399h4.199v80.694l-8.099,29.095l-52.495,51.896h-114.59V498.938
	l8.099-29.099h113.69L-26.436,512.736z M-39.333,648.938v-62.407h-32.998l32.998-32.748v-34.855l-45.045-36.189h-95.943v210.584
	h96.09L-39.333,648.938z M-99.029,567.631h-22.198v-33.596h22.198V567.631z M-99.029,642.025h-22.198v-37.796h22.198V642.025z"/>
<path fill="#151363" d="M135.549,654.326l-8.099,29.095l-52.496,51.896H-39.635V530.735L20.96,469.84h114.589V654.326z
	 M122.651,648.938v-166.2H26.743l-45.079,44.882v165.702h96.09L122.651,648.938z M63.258,642.025H41.059v-107.99h22.199V642.025z"/>
<path fill="#151363" d="M297.233,546.934l-8.098,29.099h-31.498v157.485l-8.101,29.096h-85.191V576.032h-41.996v-77.094
	l8.098-29.099h166.786V546.934z M284.333,534.035v-51.297H143.648v51.297h41.995v186.581h59.095V534.035H284.333z"/>
<g>
	<path fill="#151363" d="M-213.441,607.937l-7.225,16.382h-75.996v-40.195l7.225-16.383h75.997V607.937z M-224.948,600.675v-25.673
		h-52.714v25.673H-224.948z"/>
</g>
</svg>
