<?xml version="1.0" encoding="utf-8"?>
<!-- Generator: Adobe Illustrator 16.0.0, SVG Export Plug-In . SVG Version: 6.00 Build 0)  -->
<!DOCTYPE svg PUBLIC "-//W3C//DTD SVG 1.1//EN" "http://www.w3.org/Graphics/SVG/1.1/DTD/svg11.dtd">
<svg version="1.1" id="Layer_1" xmlns="http://www.w3.org/2000/svg" xmlns:xlink="http://www.w3.org/1999/xlink" x="0px" y="0px"
	 width="612px" height="161.5px" viewBox="0 0 612 161.5" enable-background="new 0 0 612 161.5" xml:space="preserve">
<path fill-rule="evenodd" clip-rule="evenodd" fill="#CC2531" d="M113.067,67.328c-3.414,3.308-6.637,6.352-9.771,9.483
	c-5.976,5.97-11.889,12.004-17.855,17.983c-2.635,2.641-5.53,2.953-7.579,0.915c-2.067-2.056-1.822-5,0.757-7.611
	c9.919-10.04,19.8-20.118,29.858-30.017c2.004-1.973,2.1-3.232,0.345-5.301c-3.496-4.118-3.417-4.207-7.131-0.466
	c-9.874,9.945-19.744,19.894-29.594,29.862c-1.805,1.826-3.831,2.557-6.157,1.256c-1.93-1.079-2.624-2.92-2.292-5.086
	c0.225-1.465,1.324-2.386,2.304-3.375c9.229-9.323,18.449-18.654,27.669-27.987c0.536-0.542,1.046-1.11,1.845-1.96
	c-6.725-0.986-12.401,0.56-17.008,4.942c-6.622,6.299-12.976,12.88-19.429,19.355c-1.352,1.356-2.872,2.142-4.808,1.589
	c-1.878-0.536-3.014-1.785-3.433-3.726c-0.401-1.855,0.32-3.304,1.554-4.553c6.356-6.433,12.56-13.03,19.14-19.227
	c10.475-9.865,25.526-11.021,37.563-3.041c1.831,1.214,2.683,1.005,4.105-0.455c7.353-7.545,14.816-14.982,22.252-22.446
	c2.759-2.769,5.299-3.055,7.492-0.894c2.044,2.015,1.729,4.966-0.843,7.563c-7.554,7.626-15.123,15.237-22.671,22.868
	c-0.852,0.862-1.955,1.445-1.02,3.19c7.568,14.118,4.933,27.394-3.757,39.976c-4.665,6.754-10.854,12.11-16.938,17.527
	c-9.137,8.135-18.082,16.431-24.947,26.704c-1.918,2.869-5.669,3.012-7.534,0.192c-8.452-12.782-20.269-22.28-31.298-32.563
	c-7.384-6.886-14.056-14.316-17.124-24.282c-5.146-16.714,1.338-32.834,16.104-39.78c7.154-3.365,14.563-3.589,22.062-1.333
	c2.888,0.868,4.212,3.361,3.441,5.973c-0.773,2.615-3.114,4.072-5.785,3.256c-8.594-2.626-16.208-0.993-22.358,5.54
	c-6.516,6.923-7.051,15.212-4.3,23.911c2.452,7.753,7.793,13.514,13.508,18.944c7.701,7.318,16.004,13.999,23.158,21.896
	c0.667,0.736,1.295,1.511,2,2.208c1.523,1.508,2.5,4.463,4.335,4.43c1.407-0.025,2.797-2.754,4.138-4.328
	c8.02-9.416,17.832-16.97,26.608-25.599c6.087-5.985,11.455-12.402,13.071-21.146c0.108-0.584,0.271-1.164,0.311-1.753
	C113.107,69.181,113.067,68.388,113.067,67.328z"/>
<path fill-rule="evenodd" clip-rule="evenodd" fill="#2A2D2B" d="M320.115,63.146c9.66-15.222,31.041-14.398,39.035,0.73
	c0.691-0.862,1.326-1.679,1.988-2.474c6.918-8.323,17.039-11.423,27.313-8.099c8.182,2.646,12.443,8.742,13.98,16.954
	c0.494,2.638,0.625,5.313,0.617,8.005c-0.035,11.133-0.053,22.266,0.021,33.396c0.014,1.826-0.301,2.543-2.373,2.528
	c-6.879-0.048-6.826,0.049-6.891-6.692c-0.1-10.628,0.525-21.276-0.285-31.88c-0.732-9.594-6.398-14.919-15.15-14.989
	c-8.592-0.068-15.332,5.961-16.529,14.839c-0.199,1.47-0.289,2.964-0.293,4.448c-0.023,10.635-0.053,21.271,0.027,31.905
	c0.014,1.796-0.416,2.354-2.297,2.362c-6.861,0.034-6.861,0.114-6.861-6.709c0-9.442,0.016-18.885-0.014-28.327
	c-0.006-1.783,0.004-3.603-0.324-5.342c-1.535-8.156-6.398-12.614-14.176-13.167c-7.143-0.509-13.775,4.03-16.439,11.321
	c-0.996,2.724-1.373,5.561-1.363,8.472c0.033,10.437-0.041,20.874,0.061,31.31c0.02,1.971-0.535,2.452-2.461,2.439
	c-6.615-0.044-6.617,0.035-6.617-6.601c0.002-17.096,0.045-34.192-0.053-51.288c-0.012-2.204,0.488-2.86,2.764-2.814
	c6.313,0.126,6.314,0.011,6.32,6.333C320.115,60.696,320.115,61.584,320.115,63.146z"/>
<path fill-rule="evenodd" clip-rule="evenodd" fill="#2A2D2B" d="M461.879,78.836c1.541-9.919-4.549-17.028-15.18-17.795
	c-6.57-0.474-12.844,0.813-18.807,3.512c-1.564,0.708-2.148,0.43-2.738-1.122c-2.217-5.84-2.246-5.772,3.719-7.989
	c8.514-3.166,17.193-3.924,26.02-1.716c9.338,2.336,15.518,9.456,16.088,19.059c0.781,13.2,0.176,26.431,0.338,39.646
	c0.014,1.272-0.383,1.876-1.695,1.7c-0.098-0.014-0.201,0.013-0.299-0.004c-2.354-0.391-5.541,1.251-6.889-0.846
	c-1.068-1.66-0.217-4.557-0.217-6.904c-0.264-0.172-0.529-0.345-0.795-0.517c-0.42,0.614-0.748,1.323-1.273,1.829
	c-8.633,8.328-18.818,9.686-29.768,6.033c-8.742-2.915-13.002-9.964-12.457-19.381c0.467-8.087,6.197-14.351,15.424-16.628
	c9.088-2.242,18.123-1.427,27.1,0.801C460.92,78.632,461.398,78.728,461.879,78.836z M445.793,83.671
	c-4.828,0.074-9.449,0.462-13.529,3.128c-6.135,4.008-6.889,12.036-1.559,17.087c3.621,3.433,8.146,4.245,12.934,4.12
	c11.967-0.314,19.264-7.994,18.816-19.712c-0.053-1.362-0.299-2.063-1.832-2.444C455.697,84.624,450.732,83.837,445.793,83.671z"/>
<path fill-rule="evenodd" clip-rule="evenodd" fill="#2A2D2B" d="M596.984,83.716c0.004,18.025-13.928,32.084-31.738,32.032
	c-17.584-0.053-31.479-14.026-31.48-31.665c-0.002-18.021,13.934-32.036,31.797-31.979C583.307,52.161,596.98,65.919,596.984,83.716
	z M543.223,81.492c-0.014,15.188,9.275,25.527,21.334,25.928c9.799,0.326,18.029-5.252,21.598-14.638
	c3.598-9.457,0.801-21.027-6.648-27.148c-7.088-5.823-15.035-7.108-23.348-3.328C547.152,66.4,543.652,74.199,543.223,81.492z"/>
<path fill-rule="evenodd" clip-rule="evenodd" fill="#2A2D2B" d="M231.561,83.844c0.161-18.067,14.164-31.94,32.035-31.739
	c17.601,0.198,31.573,14.38,31.367,31.84c-0.211,17.891-14.551,32.068-32.167,31.804C245.09,115.48,231.403,101.501,231.561,83.844z
	 M262.965,60.366c-12.508,0.001-22.221,10.321-22.113,23.495c0.107,13.062,10.027,23.576,22.265,23.6
	c12.666,0.024,22.456-10.285,22.392-23.582C285.445,70.662,275.573,60.365,262.965,60.366z"/>
<path fill-rule="evenodd" clip-rule="evenodd" fill="#2A2D2B" d="M206.613,61.223c-12.217,0-23.733-0.107-35.245,0.076
	c-2.853,0.046-3.464-0.858-3.338-3.478c0.206-4.277,0.053-4.284,4.237-4.284c14.304,0,28.609-0.024,42.913,0.039
	c1.352,0.006,3.595-0.854,3.915,0.713c0.415,2.024,0.886,4.357-0.93,6.438c-6.852,7.85-13.537,15.845-20.293,23.778
	c-6.042,7.095-12.096,14.179-18.162,21.287c0.819,1.066,1.893,0.567,2.787,0.57c11.324,0.041,22.649,0.073,33.973-0.016
	c2.037-0.016,2.985,0.216,2.899,2.655c-0.18,5.122-0.021,5.128-5.104,5.128c-14.503,0-29.006,0.02-43.509-0.032
	c-1.315-0.006-3.541,0.727-3.801-0.487c-0.44-2.058-0.98-4.483,0.771-6.505c4.094-4.725,8.126-9.504,12.175-14.268
	c8.356-9.832,16.708-19.668,25.058-29.507C205.389,62.824,205.783,62.284,206.613,61.223z"/>
<path fill-rule="evenodd" clip-rule="evenodd" fill="#2A2D2B" d="M521.547,105.056c0.041,0.787,0.092,1.377,0.098,1.968
	c0.074,6.517,0.078,6.545-6.287,7.835c-3.855,0.779-7.717,0.625-11.492-0.45c-5.805-1.652-9.838-6.253-10.125-12.556
	c-0.4-8.724-0.236-17.473-0.295-26.211c-0.025-3.974-0.076-7.95,0.031-11.921c0.043-1.624-0.34-2.453-2.098-2.168
	c-0.291,0.047-0.594,0.007-0.893,0.007c-6.199-0.019-6.148-0.015-5.678-6.362c0.1-1.33,0.563-1.772,1.779-1.66
	c0.1,0.009,0.199,0.007,0.299-0.001c2.057-0.157,4.742,0.904,6.02-0.453c1.482-1.578,0.439-4.349,0.51-6.596
	c0.098-3.176,0.064-6.357,0.006-9.535c-0.023-1.243,0.332-1.9,1.672-1.726c0.195,0.026,0.396,0.008,0.596,0.003
	c6.869-0.17,6.869-0.171,6.869,6.64c0,3.179,0.088,6.361-0.033,9.535c-0.066,1.693,0.469,2.205,2.166,2.17
	c4.965-0.105,9.936,0.022,14.9-0.071c1.639-0.031,2.186,0.376,2.203,2.122c0.055,5.935,0.135,5.935-5.762,5.935
	c-3.875,0-7.75,0.05-11.623-0.028c-1.369-0.027-1.891,0.299-1.883,1.79c0.076,11.522-0.023,23.047,0.121,34.568
	c0.07,5.517,3.117,8.452,8.709,8.92c1.684,0.142,3.377,0.137,5.029-0.317C517.992,106.051,519.596,105.6,521.547,105.056z"/>
</svg>
